<?xml version="1.0" encoding="UTF-8" standalone="no"?>
<!DOCTYPE svg PUBLIC "-//W3C//DTD SVG 1.1//EN" "http://www.w3.org/Graphics/SVG/1.1/DTD/svg11.dtd">
<svg width="100%" height="100%" viewBox="0 0 964 609" version="1.1" xmlns="http://www.w3.org/2000/svg" xmlns:xlink="http://www.w3.org/1999/xlink" xml:space="preserve" xmlns:serif="http://www.serif.com/" style="fill-rule:evenodd;clip-rule:evenodd;stroke-linecap:round;stroke-linejoin:round;stroke-miterlimit:1.5;">
    <g transform="matrix(1,0,0,1,-206.342865,-5837.242882)">
        <g transform="matrix(1.389746,0,0,2.637641,0,4980.151667)">
            <g transform="matrix(2.66235,0,0,1.139065,-2790.399142,-56.45101)">
                <path d="M1359.648,335C1362.051,335 1364,337.4 1364,340.36C1364,372.38 1364,537 1364,537L1104,537L1104,340.36C1104,337.4 1105.949,335 1108.352,335C1139.524,335 1328.476,335 1359.648,335Z" style="fill:white;stroke:rgb(216,216,216);stroke-width:0.3px;"/>
            </g>
            <g transform="matrix(0.993437,0,0,0.927581,-633.18577,57.115757)">
                <rect x="1104" y="335" width="260" height="202" style="fill-opacity:0.04;"/>
            </g>
            <g transform="matrix(3.221329,0,0,0.497919,-968.815395,-2598.419843)">
                <rect x="449.745" y="5979.397" width="62.165" height="11.822" style="fill:rgb(199,199,199);"/>
            </g>
            <g transform="matrix(1.691018,0,0,0.372999,-280.565905,-1840.705603)">
                <rect x="449.745" y="5979.397" width="62.165" height="11.822" style="fill:rgb(223,223,223);"/>
            </g>
            <g transform="matrix(3.221329,0,0,0.372999,-968.815395,-1823.472087)">
                <rect x="449.745" y="5979.397" width="62.165" height="11.822" style="fill:rgb(210,210,210);fill-opacity:0.45;"/>
            </g>
            <g transform="matrix(3.657078,0,0,0.372999,-1164.791259,-1813.847984)">
                <rect x="449.745" y="5979.397" width="62.165" height="11.822" style="fill:rgb(210,210,210);fill-opacity:0.45;"/>
            </g>
            <g transform="matrix(3.657078,0,0,0.372999,-1164.791259,-1804.22388)">
                <rect x="449.745" y="5979.397" width="62.165" height="11.822" style="fill:rgb(210,210,210);fill-opacity:0.45;"/>
            </g>
            <g transform="matrix(3.657078,0,0,0.372999,-1164.791259,-1794.599776)">
                <rect x="449.745" y="5979.397" width="62.165" height="11.822" style="fill:rgb(210,210,210);fill-opacity:0.45;"/>
            </g>
            <g transform="matrix(3.657078,0,0,0.372999,-1164.791259,-1784.975673)">
                <rect x="449.745" y="5979.397" width="62.165" height="11.822" style="fill:rgb(210,210,210);fill-opacity:0.45;"/>
            </g>
            <g transform="matrix(3.657078,0,0,0.372999,-1164.791259,-1775.351569)">
                <rect x="449.745" y="5979.397" width="62.165" height="11.822" style="fill:rgb(210,210,210);fill-opacity:0.45;"/>
            </g>
            <g transform="matrix(3.657078,0,0,0.372999,-1164.791259,-1765.727465)">
                <rect x="449.745" y="5979.397" width="62.165" height="11.822" style="fill:rgb(210,210,210);fill-opacity:0.45;"/>
            </g>
            <g transform="matrix(3.657078,0,0,0.372999,-1164.791259,-1756.103361)">
                <rect x="449.745" y="5979.397" width="62.165" height="11.822" style="fill:rgb(210,210,210);fill-opacity:0.45;"/>
            </g>
            <g transform="matrix(3.657078,0,0,0.372999,-1164.791259,-1746.479258)">
                <rect x="449.745" y="5979.397" width="62.165" height="11.822" style="fill:rgb(210,210,210);fill-opacity:0.45;"/>
            </g>
            <g transform="matrix(4.072884,0,0,1.222115,-1443.325352,-6911.883459)">
                <rect x="427.246" y="5985.104" width="41.029" height="29.668" style="fill:rgb(32,113,244);fill-opacity:0.04;"/>
            </g>
            <g transform="matrix(0.719556,0,0,0.379127,0,-1892.310882)">
                <path d="M412.406,6052.555L644.71,6052.555" style="fill:none;stroke:rgb(221,221,221);stroke-width:1.25px;stroke-linejoin:miter;"/>
            </g>
            <g transform="matrix(0.719556,0,0,0.379127,0,-1888.108526)">
                <path d="M644.243,5950.422L644.243,6444.641" style="fill:none;stroke:rgb(221,221,221);stroke-width:1.25px;stroke-linejoin:miter;"/>
            </g>
            <g transform="matrix(0.719556,0,0,0.379127,258.29375,-1888.108526)">
                <path d="M644.243,5950.422L644.243,6444.641" style="fill:none;stroke:rgb(221,221,221);stroke-width:1.25px;stroke-linejoin:miter;"/>
            </g>
            <g transform="matrix(1.182206,0,0,1.182206,292.45334,-68.767784)">
                <g transform="matrix(1.32817,0,0,0.682311,-226.070821,-3690.720414)">
                    <path d="M509.681,5979.397C510.912,5979.397 511.91,5980.421 511.91,5981.684C511.91,5983.772 511.91,5986.843 511.91,5988.932C511.91,5990.195 510.912,5991.219 509.681,5991.219C499.999,5991.219 461.656,5991.219 451.975,5991.219C450.743,5991.219 449.745,5990.195 449.745,5988.932C449.745,5986.843 449.745,5983.772 449.745,5981.684C449.745,5980.421 450.743,5979.397 451.975,5979.397C461.656,5979.397 499.999,5979.397 509.681,5979.397Z" style="fill:rgb(164,157,241);"/>
                </g>
                <g transform="matrix(1.007322,0,0,0.530748,124.746999,223.045644)">
                    <g transform="matrix(0.159385,0,0,0.159385,200.789313,282.431305)">
                        <g transform="matrix(50,0,0,50,649.97337,254.019714)">
                        </g>
                        <text x="398.964px" y="254.02px" style="font-family:'SFProText-Bold', 'SF Pro Text';font-weight:700;font-size:50px;fill:white;">O<tspan x="437.295px 456.949px 475.456px 504.51px 525.262px 537.153px 569.918px 598.971px 629.343px " y="254.02px 254.02px 254.02px 254.02px 254.02px 254.02px 254.02px 254.02px 254.02px ">ffer Sent</tspan></text>
                    </g>
                    <g transform="matrix(0.738507,0,0,1.09998,112.453029,-5369.144164)">
                        <path d="M194.419,5169.528C194.94,5169.528 195.441,5169.66 195.822,5169.898C196.646,5170.414 198.147,5171.351 199.108,5171.952C199.337,5172.094 199.463,5172.295 199.457,5172.504C199.451,5172.714 199.313,5172.911 199.077,5173.048C198.109,5173.607 196.621,5174.468 195.808,5174.937C195.434,5175.153 194.958,5175.272 194.465,5175.272C192.171,5175.272 191.277,5175.272 187.8,5175.272C187.254,5175.272 186.73,5175.127 186.344,5174.867C185.958,5174.608 185.741,5174.257 185.741,5173.89C185.741,5172.987 185.741,5171.813 185.741,5170.91C185.741,5170.544 185.958,5170.192 186.344,5169.933C186.73,5169.674 187.254,5169.528 187.8,5169.528C191.254,5169.528 192.081,5169.528 194.419,5169.528Z" style="fill:white;"/>
                    </g>
                </g>
            </g>
            <g transform="matrix(0.719556,0,0,0.379127,1.872954,-1886.067552)">
                <rect x="1013.812" y="5959.644" width="63.375" height="13.31" style="fill:rgb(199,199,199);"/>
            </g>
            <g transform="matrix(1.375286,0,0,0.293287,-662.914384,-1366.452811)">
                <rect x="1013.812" y="5959.644" width="63.375" height="13.31" style="fill:rgb(227,227,227);"/>
            </g>
            <g transform="matrix(0.189806,0,0,0.100007,655.127691,387.705735)">
                <g transform="matrix(50,0,0,50,585.713604,254.019714)">
                </g>
                <text x="398.964px" y="254.02px" style="font-family:'SFProText-Bold', 'SF Pro Text';font-weight:700;font-size:50px;fill:rgb(152,152,152);">A<tspan x="433.12px 461.734px 481.364px 494.719px 522.87px 536.225px 555.855px " y="254.02px 254.02px 254.02px 254.02px 254.02px 254.02px 254.02px ">ctivity</tspan></text>
            </g>
            <g transform="matrix(0.189806,0,0,0.100007,655.127691,441.446771)">
                <g transform="matrix(50,0,0,50,696.850323,254.019714)">
                </g>
                <text x="398.964px" y="254.02px" style="font-family:'SFProText-Bold', 'SF Pro Text';font-weight:700;font-size:50px;fill:rgb(152,152,152);">F<tspan x="427.846px 441.202px 454.948px 484.002px 511.322px 523.213px 555.977px 586.593px 615.086px 635.228px 664.282px " y="254.02px 254.02px 254.02px 254.02px 254.02px 254.02px 254.02px 254.02px 254.02px 254.02px 254.02px ">iles Shared</tspan></text>
            </g>
            <g transform="matrix(1.43245,0,0,0.293287,-720.867684,-1328.363875)">
                <rect x="1013.812" y="5959.644" width="63.375" height="13.31" style="fill:rgb(227,227,227);"/>
            </g>
            <g transform="matrix(1.43245,0,0,0.293287,-720.867684,-1319.219026)">
                <rect x="1013.812" y="5959.644" width="63.375" height="13.31" style="fill:rgb(227,227,227);"/>
            </g>
            <g transform="matrix(1.43245,0,0,0.293287,-720.867684,-1310.074178)">
                <rect x="1013.812" y="5959.644" width="63.375" height="13.31" style="fill:rgb(227,227,227);"/>
            </g>
            <g transform="matrix(1.43245,0,0,0.293287,-720.867684,-1300.929329)">
                <rect x="1013.812" y="5959.644" width="63.375" height="13.31" style="fill:rgb(227,227,227);"/>
            </g>
            <g transform="matrix(1,0,0,1,0,-20.816743)">
                <g transform="matrix(1.538431,0,0,1.338651,-828.312439,-7485.25696)">
                    <path d="M1074.926,5959.29C1076.498,5959.29 1077.772,5960.062 1077.772,5961.014L1077.772,5971.584C1077.772,5972.536 1076.498,5973.308 1074.926,5973.308L1016.074,5973.308C1014.502,5973.308 1013.228,5972.536 1013.228,5971.584L1013.228,5961.014C1013.228,5960.062 1014.502,5959.29 1016.074,5959.29L1074.926,5959.29ZM1074.926,5959.644L1016.074,5959.644C1014.825,5959.644 1013.812,5960.257 1013.812,5961.014L1013.812,5971.584C1013.812,5972.34 1014.825,5972.954 1016.074,5972.954L1074.926,5972.954C1076.175,5972.954 1077.188,5972.34 1077.188,5971.584L1077.188,5961.014C1077.188,5960.257 1076.175,5959.644 1074.926,5959.644Z" style="fill:rgb(216,216,216);"/>
                </g>
                <g transform="matrix(0.25888,0,0,0.718869,475.221686,-3787.451625)">
                    <path d="M1072.521,5958.985C1074.68,5958.985 1076.751,5959.148 1078.278,5959.437C1079.804,5959.727 1080.662,5960.12 1080.662,5960.53L1080.662,5972.068C1080.662,5972.478 1079.804,5972.871 1078.278,5973.161C1076.751,5973.45 1074.68,5973.613 1072.521,5973.613L1018.479,5973.613C1016.32,5973.613 1014.249,5973.45 1012.722,5973.161C1011.196,5972.871 1010.338,5972.478 1010.338,5972.068L1010.338,5960.53C1010.338,5960.12 1011.196,5959.727 1012.722,5959.437C1014.249,5959.148 1016.32,5958.985 1018.479,5958.985L1072.521,5958.985ZM1072.521,5959.644L1018.479,5959.644C1017.241,5959.644 1016.054,5959.737 1015.179,5959.904C1014.304,5960.07 1013.812,5960.295 1013.812,5960.53L1013.812,5972.068C1013.812,5972.303 1014.304,5972.528 1015.179,5972.694C1016.054,5972.86 1017.241,5972.954 1018.479,5972.954L1072.521,5972.954C1073.759,5972.954 1074.946,5972.86 1075.821,5972.694C1076.696,5972.528 1077.188,5972.303 1077.188,5972.068L1077.188,5960.53C1077.188,5960.295 1076.696,5960.07 1075.821,5959.904C1074.946,5959.737 1073.759,5959.644 1072.521,5959.644Z" style="fill:rgb(216,216,216);"/>
                </g>
                <g transform="matrix(0.790036,0,0,0.243956,-36.588331,-956.426966)">
                    <path d="M1075.658,5959.644C1076.064,5959.644 1076.453,5959.919 1076.74,5960.408C1077.027,5960.898 1077.188,5961.561 1077.188,5962.253C1077.188,5964.592 1077.188,5968.006 1077.188,5970.344C1077.188,5971.037 1077.027,5971.7 1076.74,5972.19C1076.453,5972.679 1076.064,5972.954 1075.658,5972.954C1066.982,5972.954 1024.018,5972.954 1015.341,5972.954C1014.936,5972.954 1014.547,5972.679 1014.26,5972.19C1013.973,5971.7 1013.812,5971.037 1013.812,5970.344C1013.812,5968.006 1013.812,5964.592 1013.812,5962.253C1013.812,5961.561 1013.973,5960.898 1014.26,5960.408C1014.547,5959.919 1014.936,5959.644 1015.341,5959.644C1024.018,5959.644 1066.982,5959.644 1075.658,5959.644Z" style="fill:rgb(227,227,227);"/>
                </g>
                <g transform="matrix(0.433975,0,0,0.243956,324.391001,-951.319865)">
                    <path d="M1074.404,5959.644C1075.142,5959.644 1075.85,5959.919 1076.372,5960.408C1076.894,5960.898 1077.188,5961.561 1077.188,5962.253C1077.188,5964.592 1077.188,5968.006 1077.188,5970.344C1077.188,5971.037 1076.894,5971.7 1076.372,5972.19C1075.85,5972.679 1075.142,5972.954 1074.404,5972.954C1063.944,5972.954 1027.056,5972.954 1016.596,5972.954C1015.858,5972.954 1015.15,5972.679 1014.628,5972.19C1014.106,5971.7 1013.812,5971.037 1013.812,5970.344C1013.812,5968.006 1013.812,5964.592 1013.812,5962.253C1013.812,5961.561 1014.106,5960.898 1014.628,5960.408C1015.15,5959.919 1015.858,5959.644 1016.596,5959.644C1027.056,5959.644 1063.944,5959.644 1074.404,5959.644Z" style="fill:rgb(227,227,227);"/>
                </g>
            </g>
            <g transform="matrix(1,0,0,1,0,0.642583)">
                <g transform="matrix(1.538431,0,0,1.338651,-828.312439,-7485.25696)">
                    <path d="M1074.926,5959.29C1076.498,5959.29 1077.772,5960.062 1077.772,5961.014L1077.772,5971.584C1077.772,5972.536 1076.498,5973.308 1074.926,5973.308L1016.074,5973.308C1014.502,5973.308 1013.228,5972.536 1013.228,5971.584L1013.228,5961.014C1013.228,5960.062 1014.502,5959.29 1016.074,5959.29L1074.926,5959.29ZM1074.926,5959.644L1016.074,5959.644C1014.825,5959.644 1013.812,5960.257 1013.812,5961.014L1013.812,5971.584C1013.812,5972.34 1014.825,5972.954 1016.074,5972.954L1074.926,5972.954C1076.175,5972.954 1077.188,5972.34 1077.188,5971.584L1077.188,5961.014C1077.188,5960.257 1076.175,5959.644 1074.926,5959.644Z" style="fill:rgb(216,216,216);"/>
                </g>
                <g transform="matrix(0.25888,0,0,0.718869,475.221686,-3787.451625)">
                    <path d="M1072.521,5958.985C1074.68,5958.985 1076.751,5959.148 1078.278,5959.437C1079.804,5959.727 1080.662,5960.12 1080.662,5960.53L1080.662,5972.068C1080.662,5972.478 1079.804,5972.871 1078.278,5973.161C1076.751,5973.45 1074.68,5973.613 1072.521,5973.613L1018.479,5973.613C1016.32,5973.613 1014.249,5973.45 1012.722,5973.161C1011.196,5972.871 1010.338,5972.478 1010.338,5972.068L1010.338,5960.53C1010.338,5960.12 1011.196,5959.727 1012.722,5959.437C1014.249,5959.148 1016.32,5958.985 1018.479,5958.985L1072.521,5958.985ZM1072.521,5959.644L1018.479,5959.644C1017.241,5959.644 1016.054,5959.737 1015.179,5959.904C1014.304,5960.07 1013.812,5960.295 1013.812,5960.53L1013.812,5972.068C1013.812,5972.303 1014.304,5972.528 1015.179,5972.694C1016.054,5972.86 1017.241,5972.954 1018.479,5972.954L1072.521,5972.954C1073.759,5972.954 1074.946,5972.86 1075.821,5972.694C1076.696,5972.528 1077.188,5972.303 1077.188,5972.068L1077.188,5960.53C1077.188,5960.295 1076.696,5960.07 1075.821,5959.904C1074.946,5959.737 1073.759,5959.644 1072.521,5959.644Z" style="fill:rgb(216,216,216);"/>
                </g>
                <g transform="matrix(0.790036,0,0,0.243956,-36.588331,-956.426966)">
                    <path d="M1075.658,5959.644C1076.064,5959.644 1076.453,5959.919 1076.74,5960.408C1077.027,5960.898 1077.188,5961.561 1077.188,5962.253C1077.188,5964.592 1077.188,5968.006 1077.188,5970.344C1077.188,5971.037 1077.027,5971.7 1076.74,5972.19C1076.453,5972.679 1076.064,5972.954 1075.658,5972.954C1066.982,5972.954 1024.018,5972.954 1015.341,5972.954C1014.936,5972.954 1014.547,5972.679 1014.26,5972.19C1013.973,5971.7 1013.812,5971.037 1013.812,5970.344C1013.812,5968.006 1013.812,5964.592 1013.812,5962.253C1013.812,5961.561 1013.973,5960.898 1014.26,5960.408C1014.547,5959.919 1014.936,5959.644 1015.341,5959.644C1024.018,5959.644 1066.982,5959.644 1075.658,5959.644Z" style="fill:rgb(227,227,227);"/>
                </g>
                <g transform="matrix(0.433975,0,0,0.243956,324.391001,-951.319865)">
                    <path d="M1074.404,5959.644C1075.142,5959.644 1075.85,5959.919 1076.372,5960.408C1076.894,5960.898 1077.188,5961.561 1077.188,5962.253C1077.188,5964.592 1077.188,5968.006 1077.188,5970.344C1077.188,5971.037 1076.894,5971.7 1076.372,5972.19C1075.85,5972.679 1075.142,5972.954 1074.404,5972.954C1063.944,5972.954 1027.056,5972.954 1016.596,5972.954C1015.858,5972.954 1015.15,5972.679 1014.628,5972.19C1014.106,5971.7 1013.812,5971.037 1013.812,5970.344C1013.812,5968.006 1013.812,5964.592 1013.812,5962.253C1013.812,5961.561 1014.106,5960.898 1014.628,5960.408C1015.15,5959.919 1015.858,5959.644 1016.596,5959.644C1027.056,5959.644 1063.944,5959.644 1074.404,5959.644Z" style="fill:rgb(227,227,227);"/>
                </g>
            </g>
            <g transform="matrix(1,0,0,1,0,30.953428)">
                <g transform="matrix(0.949814,0,0,0.497919,-119.746541,-2600.514853)">
                    <rect x="449.745" y="5979.397" width="62.165" height="11.822" style="fill:rgb(193,193,193);"/>
                </g>
                <g transform="matrix(1.691018,0,0,0.372999,-453.099585,-1842.800613)">
                    <rect x="449.745" y="5979.397" width="62.165" height="11.822" style="fill:rgb(218,218,218);"/>
                </g>
                <g transform="matrix(1,0,0,1,0,5.620337)">
                    <g transform="matrix(0.548247,0,0,0.372999,60.856062,-1839.420404)">
                        <rect x="449.745" y="5979.397" width="62.165" height="11.822" style="fill:rgb(218,218,218);"/>
                    </g>
                    <g transform="matrix(1.182206,0,0,1.182206,-80.750908,-71.011791)">
                        <g transform="matrix(1.32817,0,0,0.573176,-226.070821,-3037.512744)">
                            <path d="M509.681,5978.697C510.424,5978.697 511.137,5979.058 511.662,5979.7C512.188,5980.341 512.483,5981.212 512.483,5982.119L512.483,5988.496C512.483,5989.404 512.188,5990.274 511.662,5990.916C511.137,5991.558 510.424,5991.918 509.681,5991.918L451.975,5991.918C451.231,5991.918 450.519,5991.558 449.993,5990.916C449.467,5990.274 449.172,5989.404 449.172,5988.496L449.172,5982.119C449.172,5981.212 449.467,5980.341 449.993,5979.7C450.519,5979.058 451.231,5978.697 451.975,5978.697L509.681,5978.697ZM509.681,5979.397L451.975,5979.397C451.383,5979.397 450.816,5979.684 450.398,5980.194C449.98,5980.705 449.745,5981.397 449.745,5982.119L449.745,5988.496C449.745,5989.218 449.98,5989.911 450.398,5990.421C450.816,5990.932 451.383,5991.219 451.975,5991.219L509.681,5991.219C510.272,5991.219 510.839,5990.932 511.257,5990.421C511.675,5989.911 511.91,5989.218 511.91,5988.496L511.91,5982.119C511.91,5981.397 511.675,5980.705 511.257,5980.194C510.839,5979.684 510.272,5979.397 509.681,5979.397Z" style="fill:rgb(164,157,241);"/>
                        </g>
                        <g transform="matrix(1.007322,0,0,0.530748,124.746999,223.045644)">
                            <g transform="matrix(0.159385,0,0,0.159385,201.655311,282.431305)">
                                <g transform="matrix(50,0,0,50,735.841534,254.019714)">
                                </g>
                                <text x="398.964px" y="254.02px" style="font-family:'SFProText-Bold', 'SF Pro Text';font-weight:700;font-size:50px;fill:rgb(152,144,240);">S<tspan x="431.362px 459.854px 473.6px 502.654px 529.974px 541.865px 574.556px 587.912px 619.26px 648.314px 662.06px 675.416px 705.788px " y="254.02px 254.02px 254.02px 254.02px 254.02px 254.02px 254.02px 254.02px 254.02px 254.02px 254.02px 254.02px 254.02px ">ales Pipeline</tspan></text>
                            </g>
                            <g transform="matrix(0.738507,0,0,1.09998,112.453029,-5369.144164)">
                                <path d="M196.874,5169.528C197.394,5169.528 197.895,5169.66 198.276,5169.898C199.101,5170.414 200.601,5171.351 201.563,5171.952C201.791,5172.094 201.918,5172.295 201.912,5172.504C201.906,5172.714 201.768,5172.911 201.532,5173.048C200.563,5173.607 199.075,5174.468 198.262,5174.937C197.889,5175.153 197.412,5175.272 196.919,5175.272C194.625,5175.272 191.277,5175.272 187.8,5175.272C187.254,5175.272 186.73,5175.127 186.344,5174.867C185.958,5174.608 185.741,5174.257 185.741,5173.89C185.741,5172.987 185.741,5171.813 185.741,5170.91C185.741,5170.544 185.958,5170.192 186.344,5169.933C186.73,5169.674 187.254,5169.528 187.8,5169.528C191.254,5169.528 194.536,5169.528 196.874,5169.528Z" style="fill:rgb(169,161,242);"/>
                            </g>
                        </g>
                    </g>
                </g>
            </g>
            <g transform="matrix(1,0,0,1,0,32.48653)">
                <g transform="matrix(1,0,0,1,0,35.71133)">
                    <g transform="matrix(0.949814,0,0,0.497919,-119.746541,-2600.514853)">
                        <rect x="449.745" y="5979.397" width="62.165" height="11.822" style="fill:rgb(194,194,194);"/>
                    </g>
                    <g transform="matrix(1.691018,0,0,0.372999,-453.099585,-1842.800613)">
                        <rect x="449.745" y="5979.397" width="62.165" height="11.822" style="fill:rgb(240,240,240);"/>
                    </g>
                    <g transform="matrix(2.355103,0,0,0.372999,-751.768498,-1834.814494)">
                        <rect x="449.745" y="5979.397" width="62.165" height="11.822" style="fill:rgb(240,240,240);"/>
                    </g>
                </g>
                <g transform="matrix(0.719556,0,0,0.379127,0,-1888.108526)">
                    <path d="M412.406,6052.555L644.71,6052.555" style="fill:none;stroke:rgb(221,221,221);stroke-width:1.25px;stroke-linejoin:miter;"/>
                </g>
            </g>
            <g transform="matrix(1,0,0,1,0,-36.048999)">
                <g transform="matrix(1,0,0,1,0,33.037858)">
                    <g transform="matrix(0.949814,0,0,0.497919,-119.746541,-2600.514853)">
                        <rect x="449.745" y="5979.397" width="62.165" height="11.822" style="fill:rgb(194,194,194);"/>
                    </g>
                    <g transform="matrix(1.691018,0,0,0.372999,-453.099585,-1842.800613)">
                        <rect x="449.745" y="5979.397" width="62.165" height="11.822" style="fill:rgb(240,240,240);"/>
                    </g>
                    <g transform="matrix(2.355103,0,0,0.372999,-751.768498,-1834.814494)">
                        <rect x="449.745" y="5979.397" width="62.165" height="11.822" style="fill:rgb(240,240,240);"/>
                    </g>
                </g>
            </g>
            <g transform="matrix(1,0,0,1,0,67.247821)">
                <g transform="matrix(1,0,0,1,0,35.71133)">
                    <g transform="matrix(0.949814,0,0,0.497919,-119.746541,-2600.514853)">
                        <rect x="449.745" y="5979.397" width="62.165" height="11.822" style="fill:rgb(194,194,194);"/>
                    </g>
                    <g transform="matrix(1.691018,0,0,0.372999,-453.099585,-1842.800613)">
                        <rect x="449.745" y="5979.397" width="62.165" height="11.822" style="fill:rgb(240,240,240);"/>
                    </g>
                    <g transform="matrix(2.355103,0,0,0.372999,-751.768498,-1834.814494)">
                        <rect x="449.745" y="5979.397" width="62.165" height="11.822" style="fill:rgb(240,240,240);"/>
                    </g>
                </g>
                <g transform="matrix(0.719556,0,0,0.379127,0,-1888.108526)">
                    <path d="M412.406,6052.555L644.71,6052.555" style="fill:none;stroke:rgb(221,221,221);stroke-width:1.25px;stroke-linejoin:miter;"/>
                </g>
            </g>
            <g transform="matrix(1,0,0,1,0,102.009112)">
                <g transform="matrix(1,0,0,1,0,35.71133)">
                    <g transform="matrix(0.949814,0,0,0.497919,-119.746541,-2600.514853)">
                        <rect x="449.745" y="5979.397" width="62.165" height="11.822" style="fill:rgb(194,194,194);"/>
                    </g>
                    <g transform="matrix(1.691018,0,0,0.372999,-453.099585,-1842.800613)">
                        <rect x="449.745" y="5979.397" width="62.165" height="11.822" style="fill:rgb(240,240,240);"/>
                    </g>
                    <g transform="matrix(2.355103,0,0,0.372999,-751.768498,-1834.814494)">
                        <rect x="449.745" y="5979.397" width="62.165" height="11.822" style="fill:rgb(240,240,240);"/>
                    </g>
                </g>
                <g transform="matrix(0.719556,0,0,0.379127,0,-1888.108526)">
                    <path d="M412.406,6052.555L644.71,6052.555" style="fill:none;stroke:rgb(221,221,221);stroke-width:1.25px;stroke-linejoin:miter;"/>
                </g>
            </g>
            <g transform="matrix(0.719556,0,0,0.379127,0,-1885.11898)">
                <path d="M412.143,5942.537L1168.84,5942.537" style="fill:none;stroke:rgb(221,221,221);stroke-width:1.25px;stroke-linejoin:miter;"/>
            </g>
            <g transform="matrix(0.775682,0,0,0.357242,-27.477673,-1760.502056)">
                <path d="M547.933,5903.791C551.073,5903.791 553.618,5906.703 553.618,5910.295C553.618,5917.449 553.618,5928.879 553.618,5936.033C553.618,5939.625 551.073,5942.537 547.933,5942.537C528.173,5942.537 462.604,5942.537 442.844,5942.537C439.705,5942.537 437.16,5939.625 437.16,5936.033C437.16,5928.879 437.16,5917.449 437.16,5910.295C437.16,5906.703 439.705,5903.791 442.844,5903.791C462.604,5903.791 528.173,5903.791 547.933,5903.791Z" style="fill:rgb(32,113,244);"/>
                <path d="M547.933,5902.465C551.713,5902.465 554.777,5905.97 554.777,5910.295L554.777,5936.033C554.777,5940.358 551.713,5943.863 547.933,5943.863L442.844,5943.863C439.064,5943.863 436,5940.358 436,5936.033L436,5910.295C436,5905.97 439.064,5902.465 442.844,5902.465L547.933,5902.465ZM547.933,5903.791L442.844,5903.791C439.705,5903.791 437.16,5906.703 437.16,5910.295L437.16,5936.033C437.16,5939.625 439.705,5942.537 442.844,5942.537L547.933,5942.537C551.073,5942.537 553.618,5939.625 553.618,5936.033L553.618,5910.295C553.618,5906.703 551.073,5903.791 547.933,5903.791Z" style="fill:rgb(221,221,221);"/>
            </g>
            <g transform="matrix(1.692041,0,0,0.357242,-329.84712,-1760.502056)">
                <path d="M551.012,5903.791C552.451,5903.791 553.618,5906.703 553.618,5910.295C553.618,5917.449 553.618,5928.879 553.618,5936.033C553.618,5939.625 552.451,5942.537 551.012,5942.537C535.483,5942.537 455.295,5942.537 439.766,5942.537C438.326,5942.537 437.16,5939.625 437.16,5936.033C437.16,5928.879 437.16,5917.449 437.16,5910.295C437.16,5906.703 438.326,5903.791 439.766,5903.791C455.295,5903.791 535.483,5903.791 551.012,5903.791Z" style="fill:white;"/>
                <path d="M551.012,5902.465C552.745,5902.465 554.149,5905.97 554.149,5910.295L554.149,5936.033C554.149,5940.358 552.745,5943.863 551.012,5943.863L439.766,5943.863C438.033,5943.863 436.628,5940.358 436.628,5936.033L436.628,5910.295C436.628,5905.97 438.033,5902.465 439.766,5902.465L551.012,5902.465ZM551.012,5903.791L439.766,5903.791C438.326,5903.791 437.16,5906.703 437.16,5910.295L437.16,5936.033C437.16,5939.625 438.326,5942.537 439.766,5942.537L551.012,5942.537C552.451,5942.537 553.618,5939.625 553.618,5936.033L553.618,5910.295C553.618,5906.703 552.451,5903.791 551.012,5903.791Z" style="fill:rgb(221,221,221);"/>
            </g>
            <g transform="matrix(0.568173,0,0,1.051719,-478.428322,-9.546242)">
                <rect x="1104" y="335" width="260" height="202" style="fill:rgb(28,28,28);"/>
            </g>
            <g transform="matrix(0.106583,0,0,0.068509,41.804554,327.596213)">
                <path d="M1338.144,335C1352.424,335 1364,344.489 1364,356.194C1364,394.993 1364,477.007 1364,515.806C1364,527.511 1352.424,537 1338.144,537C1288.345,537 1179.655,537 1129.856,537C1115.576,537 1104,527.511 1104,515.806C1104,477.007 1104,394.993 1104,356.194C1104,344.489 1115.576,335 1129.856,335C1179.655,335 1288.345,335 1338.144,335Z" style="fill:rgb(55,55,55);"/>
            </g>
            <g transform="matrix(0.39229,0,0,0.037623,-265.946075,389.440018)">
                <rect x="1104" y="335" width="260" height="202" style="fill:rgb(55,55,55);"/>
            </g>
            <g transform="matrix(0.39229,0,0,0.037623,-265.946075,405.513369)">
                <rect x="1104" y="335" width="260" height="202" style="fill:rgb(55,55,55);"/>
            </g>
            <g transform="matrix(0.39229,0,0,0.037623,-265.946075,422.842251)">
                <rect x="1104" y="335" width="260" height="202" style="fill:rgb(55,55,55);"/>
            </g>
            <g transform="matrix(0.568173,0,0,0.081206,-478.428322,348.415204)">
                <rect x="1104" y="335" width="260" height="202" style="fill:rgb(55,55,55);"/>
            </g>
            <g transform="matrix(0.39229,0,0,0.037623,-265.946075,440.153119)">
                <rect x="1104" y="335" width="260" height="202" style="fill:rgb(55,55,55);"/>
            </g>
            <g transform="matrix(0.39229,0,0,0.037623,-265.946075,457.463987)">
                <rect x="1104" y="335" width="260" height="202" style="fill:rgb(55,55,55);"/>
            </g>
            <g transform="matrix(0.39229,0,0,0.037623,-265.946075,474.774855)">
                <rect x="1104" y="335" width="260" height="202" style="fill:rgb(55,55,55);"/>
            </g>
            <g transform="matrix(2.66235,0,0,0.089716,-2790.399142,295.080859)">
                <path d="M1359.648,335C1362.051,335 1364,365.468 1364,403.053C1364,461.703 1364,537 1364,537L1104,537C1104,537 1104,461.703 1104,403.053C1104,365.468 1105.949,335 1108.352,335C1139.524,335 1328.476,335 1359.648,335Z" style="fill:rgb(51,51,51);"/>
            </g>
            <g transform="matrix(0.951028,0,0,0.501087,-1168.67933,268.345887)">
                <circle cx="1407" cy="132" r="7" style="fill:rgb(234,92,92);"/>
            </g>
            <g transform="matrix(0.951028,0,0,0.501087,-1148.208524,268.345887)">
                <circle cx="1407" cy="132" r="7" style="fill:rgb(236,186,22);"/>
            </g>
            <g transform="matrix(0.951028,0,0,0.501087,-1127.737718,268.345887)">
                <circle cx="1407" cy="132" r="7" style="fill:rgb(66,176,92);"/>
            </g>
            <g transform="matrix(0.216407,0,0,0.089052,112.762549,286.574359)">
                <g transform="matrix(1,0,0,1.28041,365,673.070396)">
                    <path d="M90.6,136.298C81.005,131.478 81.178,131.269 71.602,126.302C68.084,124.478 69.016,122.738 68.956,99.498C68.935,91.258 55.936,94.671 55.871,84.5C55.76,67.16 55.559,64.924 58.57,63.698C60.793,62.793 120.146,63.306 125.5,63.352C131.758,63.406 131.603,66.027 131.296,85.499C131.224,90.079 127.533,90.827 120.787,94.94C117.347,97.036 118.297,101.627 118.297,109.5C118.297,122.22 120.138,124.228 112.31,128.12C96.875,135.796 97.025,138.466 90.6,136.298Z" style="fill:rgb(249,249,249);"/>
                </g>
                <g transform="matrix(1,0,0,1.28041,365,673.070396)">
                    <path d="M274.5,112.201C269.509,112.206 264.751,111.084 262.878,114.693C261.918,116.544 261.045,118.439 260.121,120.308C259.849,120.857 256.915,126.791 253.596,124.315C252.577,123.554 252.953,122.658 265.876,96.69C268.492,91.432 268.527,91.514 271.118,86.307C277.631,73.219 280.068,66.72 281.558,69.45C287.656,80.62 303.098,114.373 304.9,118.312C305.079,118.704 309.905,125.771 303.531,124.36C300.483,123.686 297.936,114.238 296.275,112.797C295.369,112.011 292.493,112.201 274.5,112.201Z" style="fill:rgb(252,252,252);"/>
                </g>
                <g transform="matrix(1,0,0,1.28041,365,673.070396)">
                    <path d="M74.4,78.699C90.657,86.217 90.987,86.054 91.464,87.515C91.718,88.296 91.708,88.322 91.702,125.5C91.701,125.999 91.701,131.626 90.504,131.625C90.187,131.625 73.596,123.607 72.851,121.42C72.048,119.064 74.142,96.021 71.462,93.545C67.925,90.277 59.55,88.663 59.533,83.5C59.521,80.01 58.597,71.721 61.497,72.511C62.536,72.794 73.375,78.189 74.4,78.699Z" style="fill:rgb(28,28,28);"/>
                </g>
                <g transform="matrix(1,0,0,1.28041,365,673.070396)">
                    <path d="M108.579,80.678C124.386,73.613 124.08,72.993 125.489,72.465C128.433,71.362 127.489,79.892 127.477,83.5C127.452,90.602 114.325,89.931 114.28,97.499C114.148,120.22 115.448,122.02 111.305,124.114C97.269,131.208 95.598,133.273 95.489,130.502C95.339,126.686 95.507,92.78 95.524,89.5C95.544,85.461 102.382,83.609 108.579,80.678Z" style="fill:rgb(28,28,28);"/>
                </g>
                <g transform="matrix(1,0,0,1.28041,365,673.070396)">
                    <path d="M317.524,124.028C315.95,123.324 315.906,123.392 315.824,123.268C315.223,122.352 315.446,68.802 315.629,68.644C316.777,67.656 318.138,70.424 318.817,71.219C319.737,72.294 320.812,73.551 330.114,84.825C350.159,109.118 351.4,111.458 352.457,110.467C353.191,109.778 351.215,69.575 353.521,68.539C358.577,66.268 357.503,72.723 357.503,94.5C357.503,121.925 357.983,126.094 355.732,123.271C325.138,84.89 324.859,85.141 322.222,81.787C319.695,78.574 320.623,85.964 320.503,116.5C320.484,121.353 322.356,123.371 317.524,124.028Z" style="fill:rgb(254,254,254);"/>
                </g>
                <g transform="matrix(1,0,0,1.28041,365,673.070396)">
                    <path d="M61.583,66.81C69.573,67.26 69.514,67.206 105.5,67.206C124.806,67.206 125.19,65.605 126.299,66.846C127.587,68.289 125.535,68.036 95.49,82.479C92.785,83.78 92.579,82.676 60.76,68.265C61.034,67.78 61.308,67.295 61.583,66.81Z" style="fill:rgb(28,28,28);"/>
                </g>
                <g transform="matrix(1,0,0,1.28041,365,673.070396)">
                    <path d="M147.4,69.472C148.745,67.746 149.191,68.032 185.5,68.032C187.765,68.032 192.555,67.005 191.613,71.526C190.71,75.858 172.136,70.182 172.032,75.465C171.739,90.199 172.841,122.979 171.212,124.076C170.373,124.64 166.805,124.951 166.732,122.476C166.263,106.493 167.877,74.122 165.561,73.336C164.276,72.901 164.226,73.478 148.606,73.108C147.339,71.537 147.332,71.541 147.4,69.472Z" style="fill:rgb(245,245,245);"/>
                </g>
                <g transform="matrix(1,0,0,1.28041,365,673.070396)">
                    <path d="M230.964,74.234C226.418,71.094 209.332,76.3 211.819,69.573C212.708,67.17 213.708,68.336 251.5,68.032C255.402,68.001 257.432,67.684 256.182,71.434C254.684,75.93 236.801,70.129 236.509,75.5C236.021,84.454 237.682,123.373 235.421,124.304C233.711,125.009 233.709,124.545 231.892,124.02C230.292,119.874 232.096,78.831 230.964,74.234Z" style="fill:rgb(254,254,254);"/>
                </g>
                <g transform="matrix(1,0,0,1.28041,365,673.070396)">
                    <path d="M286.5,107.032C269.796,106.84 269.815,107.006 268.366,106.934C266.268,106.829 267.758,103.922 267.877,103.688C279.376,81.257 279.837,76.313 281.721,80.329C293.424,105.27 294.689,106.801 292.4,107.044C290.445,107.253 288.456,106.824 286.5,107.032Z" style="fill:rgb(29,29,29);"/>
                </g>
                <g transform="matrix(1,0,0,1.28041,365,673.070396)">
                    <path d="M199.511,68.513C202.559,68.118 202.695,67.698 203.524,68.469C204.284,69.174 204.29,73.093 204.291,73.5C204.374,123.705 203.897,123.786 203.329,124.176C199.494,126.807 199.008,120.953 198.97,120.498C199.354,105.265 198.371,73.104 199.511,68.513Z" style="fill:rgb(247,247,247);"/>
                </g>
                <g transform="matrix(1,0,0,1.28041,365,673.070396)">
                    <path d="M230.964,74.234C232.096,78.831 230.292,119.874 231.892,124.02C228.163,121.043 230,120.22 230,115.5C230,76.997 229.821,76.92 230.964,74.234Z" style="fill:rgb(57,57,57);"/>
                </g>
                <g transform="matrix(1,0,0,1.28041,365,673.070396)">
                    <path d="M199.511,68.513C198.371,73.104 199.354,105.265 198.97,120.498C197.223,116.899 197.591,116.757 198,70.5C198.022,68.055 199.068,68.796 199.511,68.513Z" style="fill:rgb(100,100,100);"/>
                </g>
                <g transform="matrix(1,0,0,1.28041,365,673.070396)">
                    <path d="M147.4,69.472C147.332,71.541 147.339,71.537 148.606,73.108C148.577,73.103 146.563,74.027 146.059,71.561C145.931,70.938 145.981,70.584 145.993,70.5C146.212,68.946 147.282,69.558 147.4,69.472Z" style="fill:rgb(103,103,103);"/>
                </g>
                <g transform="matrix(1,0,0,1.28041,365,673.070396)">
                    <path d="M61.583,66.81C61.308,67.295 61.034,67.78 60.76,68.265C60.756,67.928 60.103,67.837 60.1,67.5C60.1,67.5 61.464,66.865 61.583,66.81Z" style="fill:rgb(153,153,153);"/>
                </g>
            </g>
            <g transform="matrix(1.275241,0,0,0.671911,-155.452234,168.774177)">
                <g transform="matrix(0.206462,0,0,0.206462,186.747818,271.179657)">
                    <g transform="matrix(50,0,0,50,533.366924,254.019714)">
                    </g>
                    <text x="398.964px" y="254.02px" style="font-family:'SFProText-Bold', 'SF Pro Text';font-weight:700;font-size:50px;fill:white;">I<tspan x="413.882px 444.254px 475.822px 504.339px " y="254.02px 254.02px 254.02px 254.02px ">nbox</tspan></text>
                </g>
                <g transform="matrix(0.146061,0,0,0.146061,241.909794,311.416586)">
                    <path d="M106.498,64.95C118.287,63.993 125.015,53.227 137.56,43.598C138.959,42.524 141.115,43.752 140.257,65.482C139.556,83.258 130.129,85.152 96.501,84.264C78.11,83.778 70.045,80.812 72.696,48.522C73.031,44.442 73.433,41.69 76.475,44.529C78.09,46.037 86.7,54.073 97.836,62.042C101.231,64.471 105.77,64.884 106.498,64.95ZM116.5,31.034C118.057,31.147 141.932,32.871 133.866,39.923C111.177,59.76 110.172,59.802 107.529,59.912C100.989,60.183 97.549,54.114 79.534,40.46C75.127,37.12 77.312,35.4 82.416,33.314C89.238,30.526 99.666,31.034 116.5,31.034Z" style="fill:white;"/>
                </g>
            </g>
        </g>
        <g transform="matrix(1.389746,0,0,2.637641,0,4980.151667)">
            <g transform="matrix(0.493794,0,0,0.260175,143.394709,-1146.975658)">
                <g transform="matrix(13.189078,0,0,13.189078,1233.585409,6259.666929)">
                </g>
                <text x="1207.484px" y="6259.667px" style="font-family:'SFProText-Bold', 'SF Pro Text';font-weight:700;font-size:13.189px;fill:rgb(152,152,152);">P<tspan x="1216.107px 1225.703px " y="6259.667px 6259.667px ">DF</tspan></text>
            </g>
        </g>
        <g transform="matrix(1.389746,0,0,2.637641,0,4980.151667)">
            <g transform="matrix(0.493794,0,0,0.260175,142.814355,-1125.203565)">
                <g transform="matrix(13.189078,0,0,13.189078,1236.000402,6259.666929)">
                </g>
                <text x="1207.484px" y="6259.667px" style="font-family:'SFProText-Bold', 'SF Pro Text';font-weight:700;font-size:13.189px;fill:rgb(152,152,152);">P<tspan x="1216.107px 1225.973px " y="6259.667px 6259.667px ">NG</tspan></text>
            </g>
        </g>
    </g>
</svg>
